<?xml version="1.0" encoding="UTF-8" standalone="no"?>
<!-- Created with Inkscape (http://www.inkscape.org/) -->

<svg
   xmlns:dc="http://purl.org/dc/elements/1.1/"
   xmlns:cc="http://creativecommons.org/ns#"
   xmlns:rdf="http://www.w3.org/1999/02/22-rdf-syntax-ns#"
   xmlns:svg="http://www.w3.org/2000/svg"
   xmlns="http://www.w3.org/2000/svg"
   xmlns:sodipodi="http://sodipodi.sourceforge.net/DTD/sodipodi-0.dtd"
   xmlns:inkscape="http://www.inkscape.org/namespaces/inkscape"
   width="283.12634mm"
   height="241.54228mm"
   viewBox="0 0 283.12634 241.54228"
   version="1.1"
   id="svg8"
   inkscape:version="0.92.4 (5da689c313, 2019-01-14)"
   sodipodi:docname="Ljubljana International Film Festival (LIFFe) (logo).svg">
  <defs
     id="defs2">
    <clipPath
       id="clipPath26"
       clipPathUnits="userSpaceOnUse">
      <path
         inkscape:connector-curvature="0"
         id="path24"
         d="M 0,38.4 H 69.6 V 0 H 0 Z" />
    </clipPath>
  </defs>
  <sodipodi:namedview
     id="base"
     pagecolor="#ffffff"
     bordercolor="#666666"
     borderopacity="1.0"
     inkscape:pageopacity="0.0"
     inkscape:pageshadow="2"
     inkscape:zoom="0.35"
     inkscape:cx="525.04192"
     inkscape:cy="366.45784"
     inkscape:document-units="mm"
     inkscape:current-layer="layer1"
     showgrid="false"
     inkscape:window-width="1600"
     inkscape:window-height="871"
     inkscape:window-x="-9"
     inkscape:window-y="-9"
     inkscape:window-maximized="1"
     fit-margin-top="3"
     fit-margin-right="3"
     fit-margin-left="3"
     fit-margin-bottom="3" />
  <metadata
     id="metadata5">
    <rdf:RDF>
      <cc:Work
         rdf:about="">
        <dc:format>image/svg+xml</dc:format>
        <dc:type
           rdf:resource="http://purl.org/dc/dcmitype/StillImage" />
        <dc:title></dc:title>
      </cc:Work>
    </rdf:RDF>
  </metadata>
  <g
     inkscape:label="Layer 1"
     inkscape:groupmode="layer"
     id="layer1"
     transform="translate(33.084007,-4.2496814)">
    <g
       id="g20"
       transform="matrix(13.482187,0,0,-12.805944,-229.01098,344.82461)">
      <g
         id="g22"
         clip-path="url(#clipPath26)">
        <g
           id="g28"
           transform="translate(26.2964,12.6416)">
          <path
             d="m 0,0 c 0.249,-0.187 1.028,-0.374 1.028,-0.935 0,-0.25 -0.155,-0.53 -0.498,-0.685 -0.468,-0.219 -0.561,-0.343 -0.561,-0.592 0,-0.219 0.156,-0.374 0.654,-0.655 0.53,-0.28 0.467,-0.654 0.467,-0.997 0,-0.436 -0.467,-0.81 -1.09,-0.81 h -0.592 c -1.371,0 -1.869,0.935 -1.994,1.402 -0.249,0.873 -0.249,1.153 -0.436,1.309 -0.468,0.405 -0.904,0.529 -0.904,1.06 0,0.778 1.184,0.498 1.184,1.994 v 4.237 c 0,0.811 0.374,1.091 1.215,1.091 0.81,0 1.153,-0.374 1.153,-1.091 V 0.935 C -0.374,0.498 -0.218,0.155 0,0"
             style="fill:#f1471d;fill-opacity:1;fill-rule:nonzero;stroke:none"
             id="path30"
             inkscape:connector-curvature="0" />
        </g>
        <g
           id="g32"
           transform="translate(16.2168,26.2808)">
          <path
             d="m 0,0 h -0.508 c -0.573,0 -0.954,-0.445 -0.954,-1.018 v -9.093 c 0,-0.827 0.349,-1.177 1.303,-1.177 0.795,0 1.177,0.35 1.177,1.018 v 9.093 C 1.018,-0.382 0.668,0 0,0 m 5.183,-0.875 c 0,0.541 -0.35,0.955 -1.272,0.955 -0.668,0 -1.24,-0.224 -1.24,-1.018 0,-0.541 0.318,-0.954 1.24,-0.954 0.699,0 1.272,0.223 1.272,1.017 M 4.197,-2.814 H 3.625 c -0.572,0 -0.954,-0.445 -0.954,-1.145 v -5.946 c 0,-0.922 0.191,-1.398 1.272,-1.398 0.858,0 1.272,0.382 1.272,1.144 v 5.946 c 0,0.922 -0.35,1.399 -1.018,1.399 m 5.898,-1.908 c 0.255,0.191 1.05,0.382 1.05,0.954 0,0.254 -0.159,0.54 -0.509,0.7 -0.477,0.222 -0.573,0.349 -0.573,0.604 0,0.222 0.16,0.381 0.668,0.668 0.54,0.286 0.477,0.667 0.477,1.017 0,0.445 -0.477,0.826 -1.113,0.826 H 9.491 C 8.092,0.047 7.583,-0.906 7.456,-1.383 7.202,-2.273 7.202,-2.56 7.011,-2.719 6.534,-3.132 6.089,-3.259 6.089,-3.8 c 0,-0.795 1.208,-0.509 1.208,-2.035 v -4.324 c 0,-0.827 0.382,-1.113 1.24,-1.113 0.827,0 1.177,0.382 1.177,1.113 v 4.483 c 0,0.446 0.159,0.795 0.381,0.954 m 8.998,-1.812 c 0,0.636 -0.445,3.752 -3.911,3.752 -2.066,0 -4.037,-1.24 -4.037,-4.483 0,-2.703 1.748,-4.134 4.069,-4.134 2.385,0 3.53,1.431 3.53,1.94 0,0.381 -0.573,0.827 -1.082,0.827 -0.826,0 -1.049,-1.114 -2.416,-1.114 -0.827,0 -1.653,0.764 -1.653,1.463 0,0.54 0.381,0.827 1.113,0.827 h 2.575 0.731 c 0.763,0 1.081,0.191 1.081,0.922 m -5.373,1.081 c 0,0.572 0.826,1.017 1.462,1.017 0.763,0 1.431,-0.572 1.431,-1.081 0,-0.445 -0.54,-0.668 -1.59,-0.668 -0.858,0 -1.303,0.255 -1.303,0.732"
             style="fill:#231f20;fill-opacity:1;fill-rule:nonzero;stroke:none"
             id="path34"
             inkscape:connector-curvature="0" />
        </g>
      </g>
    </g>
  </g>
</svg>
