<?xml version="1.0" encoding="UTF-8"?>
<!DOCTYPE svg PUBLIC "-//W3C//DTD SVG 1.1//EN" "http://www.w3.org/Graphics/SVG/1.1/DTD/svg11.dtd">
<svg xmlns="http://www.w3.org/2000/svg" height="346.890953087" viewBox="0 0 300.0 361.0" width="288.275030266" version="1.1">
	<g fill-rule="evenodd">
		<path d="m115.72 249.81v0.57 30.15 0.47l0.44-0.19 20.72-8.53 19.5 15.88 0.4 0.34 0.1-0.53 4.9-35.69 0.1-0.59-0.54 0.28-23.81 12.22-21.34-14.07-0.47-0.31z"/>
		<path d="m215.88 248.75l-0.44 0.13-49.72 14.12h-0.03l-0.19 0.06-0.03 0.22-1.22 8.6-0.06 0.46 0.43-0.12 50.38-14.78 0.22-0.03v-0.22l0.62-8 0.04-0.44z"/>
		<path d="m136.91 259c-0.61419 1.2302-9.2128-12.919 0-26.454 0 0-47.293-11.688-49.136-38.758 0 0-6.1425-51.677 76.16-62.136-117.31-41.215-108.09-127.34-108.09-121.81 55.89 23.381 92.74 68.291 130.21 120.58 4.3 1.23-21.5-70.13 58.35-130.42-1.2284 33.836 4.2987 48.601-10.441 97.817-13.513 35.682-27.639 43.064-27.639 44.295 28.867 20.916 15.355 70.748 9.2128 98.432l-49.136 15.995 2.4568-14.15c-9.2134 4.9215-23.954 12.304-31.938 16.611"/>
		<path fill="#fff" d="m130.16 156.26c6.1419 0 11.67 5.5369 11.67 11.689 0 6.1517-5.5277 11.074-11.67 11.074-6.1425 0-11.056-4.9221-11.056-11.074 0-6.1523 4.9135-11.689 11.056-11.689z"/>
		<path d="m148.37 323.18h1.0409c0.38979 0 0.71502 0 1.039 0.0652 0.26129 0.0645 0.45557 0.32523 0.45557 0.64923 0 0.0652 0 0.19489-0.0658 0.26006 0 0.0652 0 0.19551-0.0658 0.26006v0.12973c0 0.0652-0.0627 0.0652-0.0627 0.12972-0.0658 0.0645-0.0658 0.19489-0.0658 0.26068-0.0658 0.0633-0.0658 0.12849-0.0658 0.12849l-3.5738 5.8486h-0.38856l-3.2486-4.2882c-0.52012-0.64923-0.65169-1.2985-0.78018-1.6889-0.19551-0.3904-0.25945-0.71502-0.25945-1.0402 0-0.324 0.12788-0.51951 0.38794-0.58468 0.19612-0.12972 0.52012-0.12972 0.84535-0.12972h1.039v-9.227h-22.285v9.227h0.58345c1.1687 0 2.0141 0.19489 2.5342 0.64862 0.51951 0.45557 1.039 1.0402 1.43 1.8204 0.0645 0.12972 0.0645 0.19427 0.12849 0.32523 0.0652 0.0652 0.13157 0.19489 0.19674 0.25944l4.3522 6.8876 6.3023 9.6173 0.0658 5.4588v0.45372c0 0.97447-0.19428 1.5598-0.51951 1.8192-0.38978 0.19551-0.71317 0.32523-1.1048 0.32523h-2.9892v9.1624h23.002v-9.1624h-2.9886c-0.32584 0-0.65107-0.12972-0.97323-0.32523-0.26006-0.1291-0.39163-0.7144-0.39163-1.6237v-6.3036l7.5369-13.97c0.32584-0.64984 0.45372-1.3642 0.71686-1.8844 0.19428-0.58468 0.38855-1.0396 0.58222-1.4288 0.32523-0.71563 0.71685-1.3003 1.1706-1.6243 0.39163-0.32585 1.1054-0.45557 1.9495-0.45557h1.7534v-9.227h-17.284v9.227z"/>
		<path d="m193.98 348.72c-0.58468 0.58529-1.2327 0.97569-1.9508 1.1054-0.38732 0.0658-0.71255 0.13034-1.0384 0.13034h-3.8339v-8.6417h3.5745c1.2358 0 2.2748 0.38856 3.055 1.1681 0.71317 0.71563 1.1048 1.8844 1.1048 3.379 0 1.2997-0.26007 2.2742-0.91114 2.8588m-6.8231-24.756h1.6901c1.5585 0 2.9234 0.19489 3.9655 0.58468 1.1017 0.45372 1.687 1.5598 1.687 3.379 0 1.0402-0.32277 2.0147-0.90807 2.924-0.64984 0.84535-1.7559 1.2351-3.4454 1.2351h-2.9892v-8.1228zm13.061 12.216h-0.77956v-0.58406h0.32523c2.4045 0 4.6141-0.90991 6.5636-2.6646 2.0129-1.7546 2.9892-4.1585 2.9892-7.3426 0-4.7426-1.9028-9.0763-4.9485-10.543-3.1552-1.5198-6.429-1.015-10.257-1.0224-0.90991-0.0652-1.7553-0.0652-2.6633-0.0652h-22.55v9.227h2.0135c0.65046 0 1.1706 0.0652 1.5622 0.32585 0.45372 0.19304 0.64739 0.97384 0.64739 2.2729v22.352c0 1.3009-0.19367 2.0799-0.64739 2.3393-0.39163 0.19551-0.91175 0.32523-1.5622 0.32523-0.0627 0-0.1285-0.0645-0.1285-0.0645l-1.885 0.0645v9.1624h17.739s11.866 0.0941 16.491-0.3572c4.9461-0.48385 7.6162-5.8812 7.6162-12.119 0-2.9234-0.90806-5.5873-2.5988-7.8627-1.6895-2.2735-4.3534-3.4441-7.9279-3.4441"/>
		<path d="m240.05 339.1c0 3.1834-0.32585 5.848-0.97324 7.9918-0.65169 2.1438-2.0817 3.1841-4.2919 3.1841-2.2071 0-3.6366-1.0402-4.2876-3.1841-0.648-2.1438-0.90806-4.8084-0.90806-7.9918v-4.2243c0-4.5489 0.38917-7.4729 1.1675-8.8365 0.77957-1.3655 1.6901-2.2108 2.6639-2.4039 0.26252-0.0652 0.45679-0.0652 0.71686-0.0652h1.3642c0.19428 0 0.45434 0 0.648 0.0652 0.97631 0.19305 1.8838 1.0384 2.667 2.4039 0.84167 1.3636 1.2333 4.2876 1.2333 8.8365v4.21zm15.594-10.657c-0.38794-1.2345-0.84535-2.469-1.4276-3.7048-0.58468-1.2327-1.3022-2.4039-2.1444-3.5087-1.0415-1.4946-2.1438-2.6633-3.3802-3.6384-1.17-0.97446-2.4033-1.8192-3.6372-2.4697-1.9502-0.97384-3.8339-1.6243-5.6549-1.8844-1.8844-0.32523-3.3777-0.45433-4.6147-0.45433-1.2327 0-2.7918 0.1291-4.6104 0.45433-1.8868 0.32646-3.7718 0.97508-5.7834 1.9502-1.1706 0.7144-2.3387 1.494-3.5751 2.469-1.1712 0.97508-2.2754 2.1444-3.3144 3.5732-0.84535 1.1048-1.5591 2.276-2.078 3.5087-0.58529 1.2358-1.1054 2.4703-1.4934 3.7048-0.45742 1.4946-0.78265 2.924-0.91114 4.3528-0.19428 1.4952-0.25945 2.8594-0.25945 4.1598 0 1.1687 0.0652 2.7291 0.25945 4.6129 0.26006 1.9495 0.71378 3.8991 1.43 5.9777 0.32277 0.91052 0.7144 1.8192 1.1681 2.7297 0.4568 0.97507 0.97631 1.8844 1.6243 2.7291 1.8844 2.5988 4.2882 4.5483 7.2141 5.848 2.924 1.2345 5.9132 2.0135 9.0302 2.1438h2.6012c3.1177-0.13034 6.1074-0.90929 9.0302-2.1438 2.9234-1.2997 5.331-3.2492 7.2153-5.848 0.64738-0.84474 1.1669-1.754 1.6243-2.7291 0.45373-0.91053 0.84167-1.8192 1.1669-2.7297 0.71747-2.0786 1.2364-4.0282 1.43-5.9777 0.19428-1.8838 0.32707-3.4441 0.32707-4.6129 0-1.3003-0.13279-2.6646-0.26006-4.1598-0.19796-1.4288-0.52074-2.8582-0.97692-4.3528"/>
		<path d="m282.69 313.96v9.227h0.97692c0.38794 0 0.71255 0 1.039 0.0652 0.32523 0.0645 0.45434 0.32523 0.45434 0.64923v0.26006c-0.067 0.0652-0.067 0.19551-0.067 0.26006 0 0.0652-0.0621 0.0652-0.0621 0.12973 0 0.0652 0 0.0652-0.0664 0.12972 0 0.0645-0.0645 0.19489-0.0645 0.26068 0 0.0633-0.067 0.12849-0.067 0.12849l-3.5087 5.6543h-0.38732l-3.315-4.094c-0.5195-0.64923-0.65107-1.2985-0.77956-1.6889-0.19367-0.3904-0.25945-0.71502-0.25945-1.0402 0-0.324 0.12849-0.51951 0.38794-0.58468 0.26006-0.12972 0.51951-0.12972 0.84535-0.12972h1.1048v-9.227h-22.417v9.227h0.65046c1.1675 0 2.0129 0.19489 2.5324 0.64862 0.52013 0.45557 0.97631 1.0402 1.3655 1.8204 0.0645 0.12972 0.13157 0.19427 0.13157 0.32523 0.0621 0.0652 0.12726 0.19489 0.19366 0.25944l10.785 16.375v6.0429c0 0.97447-0.19366 1.5598-0.51889 1.8192-0.32646 0.19551-0.7144 0.32523-1.106 0.32523h-2.9228v9.1624h22.936v-9.1624h-2.9234c-0.3904 0-0.71317-0.12972-0.97323-0.32523-0.32523-0.1291-0.4568-0.7144-0.4568-1.6237v-6.6927l7.5375-13.581c0.32462-0.64984 0.52258-1.3642 0.71625-1.8844 0.19366-0.58468 0.38794-1.0396 0.58529-1.4288 0.32277-0.71563 0.71378-1.3003 1.1681-1.6243 0.4568-0.32585 1.1042-0.45557 1.9495-0.45557h1.7559v-9.227h-17.221z"/>
		<path d="m103.8 337.93h-3.8972l3.8327-12.087h0.5213l3.3777 12.087h-3.84zm21.963 12.151c-0.45373-0.45556-0.84351-1.2991-1.2333-2.4697-0.0658-0.12972-0.0658-0.25944-0.13156-0.38917 0-0.13033-0.0633-0.26067-0.0633-0.39039l-9.3579-32.879h-17.675l-3.6372 12.281-6.1099 19.429c-0.06455 0.19428-0.12849 0.38979-0.25945 0.64923-0.06455 0.1949-0.12849 0.45557-0.19428 0.64985-0.26006 0.71501-0.64985 1.3655-1.1054 2.0147-0.12972 0.1949-0.25945 0.38917-0.38917 0.58407-0.64985 0.7808-1.561 1.2351-2.7279 1.2351h-0.97692v9.1624h17.025v-9.1624h-0.648c-0.65108 0-1.0409-0.0645-1.3003-0.12972-0.26006-0.0646-0.45372-0.12972-0.51828-0.26006-0.13157-0.12972-0.19674-0.32462-0.19674-0.51889 0-0.26129 0.06517-0.52136 0.13095-0.7808l0.26006-0.84413h13.969l0.26067 1.494c0 0.0652 0 0.13096 0.0652 0.13096v0.12972c0 0.38917-0.13034 0.58468-0.45557 0.64923-0.324 0.0652-0.64923 0.12972-1.039 0.12972h-1.8844v9.1624h21.38v-9.1624h-0.97631c-0.97508 0-1.6889-0.25944-2.2102-0.7144"/>
		<path d="m24.004 331.96c-0.65169 0.71378-1.2991 1.2345-2.0805 1.4946-0.45495 0.0646-0.97446 0.19428-1.4288 0.25883-0.45495 0-0.77957 0.0658-1.1042 0.0658h-0.97385v-9.8774h1.3649c1.8825 0 3.2474 0.45557 4.0282 1.4306 0.77957 0.90867 1.1675 2.0135 1.1675 3.3132 0 1.4946-0.324 2.5988-0.97323 3.3144m10.592-14.882c-4.0288-1.8186-8.448-2.8582-13.322-3.0525-0.65108-0.0652-1.2991-0.0652-1.9495-0.0652h-19.235v9.227h1.8844c0.97631 0 1.5604 0.12972 1.8844 0.45557 0.32584 0.324 0.52135 1.0384 0.52135 2.1432v22.352c0 1.1048-0.19551 1.8204-0.52135 2.145-0.324 0.32523-0.90806 0.5195-1.8844 0.5195l-1.883-0.07v9.227h23.328v-9.1624h-2.5975c-1.039 0-1.6901-0.25944-1.9502-0.64923-0.32523-0.3904-0.45372-1.0402-0.45372-2.0153v-4.3528h4.9356c5.1994 0 9.0333-0.9099 11.503-2.7943 2.4045-1.8192 4.0288-3.8991 4.8735-6.1081 0.32523-0.97446 0.58345-1.9495 0.71378-2.8588 0.13157-0.9099 0.19551-1.7546 0.19551-2.5342 0-6.4327-2.0141-10.526-6.0423-12.412"/>
		<path d="m72.55 344.3c-0.06578 0.45372-0.13157 0.77895-0.19551 1.1048-0.38978 1.7534-0.84351 2.7943-1.4288 3.1834-0.51951 0.38978-1.6243 0.58468-3.3144 0.58468h-6.6927v-23.522c0-1.1048 0.12911-1.8204 0.45434-2.0786 0.26006-0.26068 0.77957-0.3904 1.6243-0.3904h2.4039v-9.227h-22.807v9.227h1.9483c1.1712 0 1.8204 0.26068 2.0817 0.7144 0.19366 0.58529 0.26006 1.2333 0.26006 1.8844v22.352c0 0.65108-0.0664 1.3009-0.32584 1.9502-0.19551 0.45496-0.84474 0.7144-2.0159 0.7144l-1.9483-0.0645v9.227h36.648l0.32523-16.96h-6.8231c-0.06578 0.52012-0.13034 0.90991-0.19428 1.3003"/>
	</g>
</svg>
